<svg width="32" height="32" viewBox="0 0 32 32" fill="none" xmlns="http://www.w3.org/2000/svg">
<rect width="32" height="32" rx="16" transform="matrix(-1 0 0 1 32 0)" fill="#FFF8FE"/>
<path d="M14.3801 20.5466C14.5068 20.5466 14.6334 20.5 14.7334 20.4C14.9268 20.2066 14.9268 19.8866 14.7334 19.6933L11.0401 16L14.7334 12.3066C14.9268 12.1133 14.9268 11.7933 14.7334 11.6C14.5401 11.4066 14.2201 11.4066 14.0268 11.6L9.98008 15.6466C9.78675 15.84 9.78675 16.16 9.98008 16.3533L14.0268 20.4C14.1268 20.5 14.2534 20.5466 14.3801 20.5466Z" fill="url(#paint0_linear_39_1119)"/>
<path d="M10.4467 16.5H21.6667C21.9401 16.5 22.1667 16.2733 22.1667 16C22.1667 15.7267 21.9401 15.5 21.6667 15.5H10.4467C10.1734 15.5 9.94675 15.7267 9.94675 16C9.94675 16.2733 10.1734 16.5 10.4467 16.5Z" fill="url(#paint1_linear_39_1119)"/>
<defs>
<linearGradient id="paint0_linear_39_1119" x1="12.3568" y1="11.455" x2="12.3568" y2="20.5466" gradientUnits="userSpaceOnUse">
<stop stop-color="#7A36CA"/>
<stop offset="1" stop-color="#38498D"/>
</linearGradient>
<linearGradient id="paint1_linear_39_1119" x1="16.0567" y1="15.5" x2="16.0567" y2="16.5" gradientUnits="userSpaceOnUse">
<stop stop-color="#7A36CA"/>
<stop offset="1" stop-color="#38498D"/>
</linearGradient>
</defs>
</svg>
