<svg width="20" height="20" viewBox="0 0 20 20" fill="none" xmlns="http://www.w3.org/2000/svg">
<path d="M17.4363 4.76562C16.0203 4.76562 14.8723 5.91367 14.8723 7.3293C14.8723 9.42695 17.4363 11.7578 17.4363 11.7578C17.4363 11.7578 20 9.42695 20 7.3293C20 5.91367 18.852 4.76562 17.4363 4.76562ZM18.0223 7.73438H16.8504V6.5625H18.0223V7.73438ZM2.56406 4.76562C1.14805 4.76562 0 5.91367 0 7.3293C0 9.42695 2.56406 11.7578 2.56406 11.7578C2.56406 11.7578 5.12773 9.42695 5.12773 7.3293C5.12773 5.91367 3.97969 4.76562 2.56406 4.76562ZM3.15 7.73438H1.97812V6.5625H3.15V7.73438ZM0.877734 18.3594H5.89492C5.92031 17.141 6.02578 15.9621 6.20352 14.868H1.81406C1.27461 15.948 0.955078 17.1305 0.877734 18.3594ZM3.53672 12.482C3.15781 12.8609 2.81641 13.2668 2.51406 13.6961H6.42969C6.71441 12.4261 7.17441 11.0465 7.83672 10.0609C6.22227 10.4508 4.74102 11.2777 3.53672 12.482ZM12.3676 13.6961C12.0489 12.2282 11.0684 9.77551 9.99996 9.80473C8.93098 9.77629 7.95113 12.2283 7.63242 13.6961H12.3676ZM7.39102 14.868C7.2043 15.9508 7.09375 17.1316 7.06719 18.3594H12.9328C12.9062 17.1316 12.7957 15.9508 12.609 14.868H7.39102ZM16.4633 12.482C15.259 11.2777 13.7777 10.4508 12.1633 10.0609C12.826 11.0475 13.2852 12.4251 13.5703 13.6961H17.4859C17.1805 13.2628 16.8383 12.8567 16.4633 12.482ZM18.1859 14.868H13.7965C13.9742 15.9621 14.0797 17.141 14.1051 18.3594H19.1223C19.0449 17.1305 18.7254 15.948 18.1859 14.868ZM10 1.64062C8.58398 1.64062 7.43633 2.78867 7.43633 4.2043C7.43633 6.30195 10 8.63281 10 8.63281C10 8.63281 12.5637 6.30195 12.5637 4.2043C12.5637 2.78867 11.416 1.64062 10 1.64062ZM10.5859 4.60938H9.41406V3.4375H10.5859V4.60938Z" fill="#D33DC2"/>
</svg>
