<svg width="21" height="21" viewBox="0 0 21 21" fill="none" xmlns="http://www.w3.org/2000/svg">
<path d="M9.27746 7.28702H11.6663M6.29931 18.4352H14.6445C16.8423 18.4352 17.7182 17.0894 17.8217 15.4491L18.2358 8.87165C18.2616 8.46382 18.2035 8.05502 18.065 7.67053C17.9266 7.28604 17.7108 6.93403 17.4309 6.63625C17.1511 6.33847 16.8131 6.10126 16.4379 5.93926C16.0627 5.77727 15.6583 5.69394 15.2497 5.69443C14.7639 5.69443 14.318 5.41573 14.0951 4.98573L13.5217 3.8311C13.1554 3.10647 12.1999 2.50925 11.3876 2.50925H9.56413C8.74394 2.50925 7.78838 3.10647 7.42209 3.8311L6.84875 4.98573C6.62579 5.41573 6.17987 5.69443 5.69413 5.69443C3.96616 5.69443 2.59653 7.15165 2.70801 8.87165L3.12209 15.4491C3.21764 17.0894 4.10153 18.4352 6.29931 18.4352Z" stroke="white" stroke-width="1.5" stroke-linecap="round" stroke-linejoin="round"/>
<path d="M10.4722 15.25C11.8976 15.25 13.0602 14.0874 13.0602 12.662C13.0602 11.2367 11.8976 10.0741 10.4722 10.0741C9.04687 10.0741 7.88428 11.2367 7.88428 12.662C7.88428 14.0874 9.04687 15.25 10.4722 15.25Z" stroke="white" stroke-width="1.5" stroke-linecap="round" stroke-linejoin="round"/>
</svg>
