<svg width="21" height="21" viewBox="0 0 21 21" fill="none" xmlns="http://www.w3.org/2000/svg">
<path d="M7.99917 0.682953C5.37917 0.682953 3.24917 2.81295 3.24917 5.43295C3.24917 8.00295 5.25917 10.083 7.87917 10.173C7.95917 10.163 8.03917 10.163 8.09917 10.173C8.11917 10.173 8.12917 10.173 8.14917 10.173C8.15917 10.173 8.15917 10.173 8.16917 10.173C10.7292 10.083 12.7392 8.00295 12.7492 5.43295C12.7492 2.81295 10.6192 0.682953 7.99917 0.682953Z" fill="#F07508"/>
<path d="M13.0792 12.833C10.2892 10.973 5.73917 10.973 2.92917 12.833C1.65917 13.683 0.959167 14.833 0.959167 16.063C0.959167 17.293 1.65917 18.433 2.91917 19.273C4.31917 20.213 6.15917 20.683 7.99917 20.683C9.83917 20.683 11.6792 20.213 13.0792 19.273C14.3392 18.423 15.0392 17.283 15.0392 16.043C15.0292 14.813 14.3392 13.673 13.0792 12.833Z" fill="#F07508"/>
<path d="M18.9892 6.02295C19.1492 7.96295 17.7692 9.66295 15.8592 9.89295C15.8492 9.89295 15.8492 9.89295 15.8392 9.89295H15.8092C15.7492 9.89295 15.6892 9.89295 15.6392 9.91295C14.6692 9.96295 13.7792 9.65295 13.1092 9.08295C14.1392 8.16295 14.7292 6.78295 14.6092 5.28295C14.5392 4.47295 14.2592 3.73295 13.8392 3.10295C14.2192 2.91295 14.6592 2.79295 15.1092 2.75295C17.0692 2.58295 18.8192 4.04295 18.9892 6.02295Z" fill="#F07508"/>
<path d="M20.9892 15.273C20.9092 16.243 20.2892 17.083 19.2492 17.653C18.2492 18.203 16.9892 18.463 15.7392 18.433C16.4592 17.783 16.8792 16.973 16.9592 16.113C17.0592 14.873 16.4692 13.683 15.2892 12.733C14.6192 12.203 13.8392 11.783 12.9892 11.473C15.1992 10.833 17.9792 11.263 19.6892 12.643C20.6092 13.383 21.0792 14.313 20.9892 15.273Z" fill="#F07508"/>
</svg>
