<svg width="20" height="18" viewBox="0 0 20 18" fill="none" xmlns="http://www.w3.org/2000/svg">
<path fill-rule="evenodd" clip-rule="evenodd" d="M0 16.5001C0 16.2791 0.0877974 16.0671 0.244078 15.9108C0.400358 15.7545 0.61232 15.6667 0.833333 15.6667H12.5C12.721 15.6667 12.933 15.7545 13.0893 15.9108C13.2455 16.0671 13.3333 16.2791 13.3333 16.5001C13.3333 16.7211 13.2455 16.9331 13.0893 17.0893C12.933 17.2456 12.721 17.3334 12.5 17.3334H0.833333C0.61232 17.3334 0.400358 17.2456 0.244078 17.0893C0.0877974 16.9331 0 16.7211 0 16.5001ZM0 11.5001C0 11.2791 0.0877974 11.0671 0.244078 10.9108C0.400358 10.7545 0.61232 10.6667 0.833333 10.6667H19.1667C19.3877 10.6667 19.5996 10.7545 19.7559 10.9108C19.9122 11.0671 20 11.2791 20 11.5001C20 11.7211 19.9122 11.9331 19.7559 12.0893C19.5996 12.2456 19.3877 12.3334 19.1667 12.3334H0.833333C0.723898 12.3334 0.615535 12.3119 0.514431 12.27C0.413326 12.2281 0.32146 12.1667 0.244078 12.0893C0.166696 12.012 0.105313 11.9201 0.0634336 11.819C0.0215547 11.7179 0 11.6095 0 11.5001ZM0 6.50008C0 6.27907 0.0877974 6.06711 0.244078 5.91083C0.400358 5.75455 0.61232 5.66675 0.833333 5.66675H19.1667C19.3877 5.66675 19.5996 5.75455 19.7559 5.91083C19.9122 6.06711 20 6.27907 20 6.50008C20 6.72109 19.9122 6.93306 19.7559 7.08934C19.5996 7.24562 19.3877 7.33341 19.1667 7.33341H0.833333C0.61232 7.33341 0.400358 7.24562 0.244078 7.08934C0.0877974 6.93306 0 6.72109 0 6.50008ZM0 1.50008C0 1.27907 0.0877974 1.06711 0.244078 0.910826C0.400358 0.754545 0.61232 0.666748 0.833333 0.666748H19.1667C19.3877 0.666748 19.5996 0.754545 19.7559 0.910826C19.9122 1.06711 20 1.27907 20 1.50008C20 1.7211 19.9122 1.93306 19.7559 2.08934C19.5996 2.24562 19.3877 2.33341 19.1667 2.33341H0.833333C0.61232 2.33341 0.400358 2.24562 0.244078 2.08934C0.0877974 1.93306 0 1.7211 0 1.50008Z" fill="#D33DC2"/>
</svg>
