<svg width="17" height="16" viewBox="0 0 17 16" fill="none" xmlns="http://www.w3.org/2000/svg">
<path d="M10.5 15.1666H6.49998C2.87998 15.1666 1.33331 13.6199 1.33331 9.99992V5.99992C1.33331 2.37992 2.87998 0.833252 6.49998 0.833252H7.83331C8.10665 0.833252 8.33331 1.05992 8.33331 1.33325C8.33331 1.60659 8.10665 1.83325 7.83331 1.83325H6.49998C3.42665 1.83325 2.33331 2.92659 2.33331 5.99992V9.99992C2.33331 13.0733 3.42665 14.1666 6.49998 14.1666H10.5C13.5733 14.1666 14.6666 13.0733 14.6666 9.99992V8.66659C14.6666 8.39325 14.8933 8.16659 15.1666 8.16659C15.44 8.16659 15.6666 8.39325 15.6666 8.66659V9.99992C15.6666 13.6199 14.12 15.1666 10.5 15.1666Z" fill="white"/>
<path d="M6.16664 11.7934C5.75997 11.7934 5.38664 11.6467 5.11331 11.38C4.78664 11.0534 4.64664 10.58 4.71997 10.08L5.00664 8.07337C5.05997 7.68671 5.31331 7.18671 5.58664 6.91337L10.84 1.66004C12.1666 0.333372 13.5133 0.333372 14.84 1.66004C15.5666 2.38671 15.8933 3.12671 15.8266 3.86671C15.7666 4.46671 15.4466 5.05337 14.84 5.65337L9.58664 10.9067C9.31331 11.18 8.81331 11.4334 8.42664 11.4867L6.41997 11.7734C6.33331 11.7934 6.24664 11.7934 6.16664 11.7934ZM11.5466 2.36671L6.2933 7.62004C6.16664 7.74671 6.01997 8.04004 5.9933 8.21337L5.70664 10.22C5.67997 10.4134 5.71997 10.5734 5.81997 10.6734C5.91997 10.7734 6.07997 10.8134 6.27331 10.7867L8.27997 10.5C8.45331 10.4734 8.75331 10.3267 8.87331 10.2L14.1266 4.94671C14.56 4.51337 14.7866 4.12671 14.82 3.76671C14.86 3.33337 14.6333 2.87337 14.1266 2.36004C13.06 1.29337 12.3266 1.59337 11.5466 2.36671Z" fill="white"/>
<path d="M13.7334 6.55343C13.6867 6.55343 13.64 6.54676 13.6 6.53343C11.8467 6.0401 10.4534 4.64677 9.96002 2.89343C9.88668 2.62677 10.04 2.35343 10.3067 2.27343C10.5734 2.2001 10.8467 2.35343 10.92 2.6201C11.32 4.0401 12.4467 5.16677 13.8667 5.56677C14.1334 5.6401 14.2867 5.9201 14.2134 6.18676C14.1534 6.41343 13.9534 6.55343 13.7334 6.55343Z" fill="white"/>
</svg>
