<svg width="32" height="32" viewBox="0 0 32 32" fill="none" xmlns="http://www.w3.org/2000/svg">
<path d="M12.0001 29.3333H20.0001C26.6667 29.3333 29.3334 26.6666 29.3334 20V12C29.3334 5.33329 26.6667 2.66663 20.0001 2.66663H12.0001C5.33341 2.66663 2.66675 5.33329 2.66675 12V20C2.66675 26.6666 5.33341 29.3333 12.0001 29.3333Z" stroke="#8E8EA9" stroke-width="1.5" stroke-linecap="round" stroke-linejoin="round"/>
<path d="M3.56006 25.2667L10.1334 20.8533C11.1867 20.1467 12.7067 20.2267 13.6534 21.04L14.0934 21.4267C15.1334 22.32 16.8134 22.32 17.8534 21.4267L23.4001 16.6667C24.4401 15.7733 26.1201 15.7733 27.1601 16.6667L29.3334 18.5333M12.0001 13.3333C12.7073 13.3333 13.3856 13.0524 13.8857 12.5523C14.3858 12.0522 14.6667 11.3739 14.6667 10.6667C14.6667 9.95942 14.3858 9.28115 13.8857 8.78105C13.3856 8.28095 12.7073 8 12.0001 8C11.2928 8 10.6145 8.28095 10.1144 8.78105C9.61434 9.28115 9.33339 9.95942 9.33339 10.6667C9.33339 11.3739 9.61434 12.0522 10.1144 12.5523C10.6145 13.0524 11.2928 13.3333 12.0001 13.3333Z" stroke="#8E8EA9" stroke-width="1.5" stroke-linecap="round" stroke-linejoin="round"/>
</svg>
