<svg width="24" height="24" viewBox="0 0 24 24" fill="none" xmlns="http://www.w3.org/2000/svg">
<path d="M17.3075 21.8541H6.69248C4.18081 21.8541 2.14581 19.8099 2.14581 17.2982V10.5057C2.14581 9.25906 2.91581 7.69156 3.90581 6.92156L8.84665 3.07156C10.3316 1.91656 12.7058 1.86156 14.2458 2.94323L19.9108 6.9124C21.0016 7.67323 21.8541 9.3049 21.8541 10.6341V17.3074C21.8541 19.8099 19.8191 21.8541 17.3075 21.8541ZM9.68998 4.15323L4.74915 8.00323C4.09831 8.51656 3.52081 9.68073 3.52081 10.5057V17.2982C3.52081 19.0491 4.94165 20.4791 6.69248 20.4791H17.3075C19.0583 20.4791 20.4791 19.0582 20.4791 17.3074V10.6341C20.4791 9.75406 19.8466 8.53489 19.1225 8.0399L13.4575 4.07073C12.4125 3.33739 10.6891 3.37406 9.68998 4.15323Z" fill="white"/>
<path d="M12 18.1875C11.6242 18.1875 11.3125 17.8758 11.3125 17.5V14.75C11.3125 14.3742 11.6242 14.0625 12 14.0625C12.3758 14.0625 12.6875 14.3742 12.6875 14.75V17.5C12.6875 17.8758 12.3758 18.1875 12 18.1875Z" fill="white"/>
</svg>
