<svg width="24" height="24" viewBox="0 0 24 24" fill="none" xmlns="http://www.w3.org/2000/svg">
<path d="M19.37 7.25171L14.09 3.55754C12.6509 2.54921 10.4417 2.60421 9.05752 3.67671L4.46502 7.26088C3.54835 7.97588 2.82419 9.44255 2.82419 10.5975V16.9225C2.82419 19.26 4.72169 21.1667 7.05919 21.1667H16.9409C19.2784 21.1667 21.1759 19.2692 21.1759 16.9317V10.7167C21.1759 9.47921 20.3784 7.95755 19.37 7.25171ZM12.6875 17.5C12.6875 17.8759 12.3759 18.1875 12 18.1875C11.6242 18.1875 11.3125 17.8759 11.3125 17.5V14.75C11.3125 14.3742 11.6242 14.0625 12 14.0625C12.3759 14.0625 12.6875 14.3742 12.6875 14.75V17.5Z" fill="#B61AA5"/>
</svg>
