<svg width="20" height="20" viewBox="0 0 20 20" fill="none" xmlns="http://www.w3.org/2000/svg">
<path d="M10 18.9584C5.05835 18.9584 1.04169 14.9417 1.04169 10.0001C1.04169 5.05841 5.05835 1.04175 10 1.04175C14.9417 1.04175 18.9584 5.05841 18.9584 10.0001C18.9584 14.9417 14.9417 18.9584 10 18.9584ZM10 2.29175C5.75002 2.29175 2.29169 5.75008 2.29169 10.0001C2.29169 14.2501 5.75002 17.7084 10 17.7084C14.25 17.7084 17.7084 14.2501 17.7084 10.0001C17.7084 5.75008 14.25 2.29175 10 2.29175Z" fill="#E31D1C"/>
<path d="M10 13.9543C9.65833 13.9543 9.375 13.6709 9.375 13.3293V9.1626C9.375 8.82093 9.65833 8.5376 10 8.5376C10.3417 8.5376 10.625 8.82093 10.625 9.1626V13.3293C10.625 13.6709 10.3417 13.9543 10 13.9543Z" fill="#E31D1C"/>
<path d="M10 7.70425C9.89169 7.70425 9.78335 7.67925 9.68335 7.63758C9.58335 7.59591 9.49169 7.53758 9.40835 7.46258C9.33335 7.37925 9.27502 7.29591 9.23335 7.18758C9.19169 7.08758 9.16669 6.97925 9.16669 6.87091C9.16669 6.76258 9.19169 6.65425 9.23335 6.55425C9.27502 6.45425 9.33335 6.36258 9.40835 6.27925C9.49169 6.20425 9.58335 6.14591 9.68335 6.10425C9.88335 6.02091 10.1167 6.02091 10.3167 6.10425C10.4167 6.14591 10.5084 6.20425 10.5917 6.27925C10.6667 6.36258 10.725 6.45425 10.7667 6.55425C10.8084 6.65425 10.8334 6.76258 10.8334 6.87091C10.8334 6.97925 10.8084 7.08758 10.7667 7.18758C10.725 7.29591 10.6667 7.37925 10.5917 7.46258C10.5084 7.53758 10.4167 7.59591 10.3167 7.63758C10.2167 7.67925 10.1084 7.70425 10 7.70425Z" fill="#E31D1C"/>
</svg>
