<svg width="20" height="20" viewBox="0 0 20 20" fill="none" xmlns="http://www.w3.org/2000/svg">
<path d="M5.46668 12.8085C5.62502 12.8085 5.78335 12.7502 5.90835 12.6252C6.15002 12.3835 6.15002 11.9835 5.90835 11.7419L4.21668 10.0502L5.90835 8.35853C6.15002 8.11686 6.15002 7.71686 5.90835 7.4752C5.66668 7.23353 5.26668 7.23353 5.02502 7.4752L2.89168 9.60853C2.65002 9.85019 2.65002 10.2502 2.89168 10.4919L5.02502 12.6252C5.15002 12.7502 5.30835 12.8085 5.46668 12.8085Z" fill="#FF4F4F"/>
<path d="M3.39164 10.6748H11.8666C12.2083 10.6748 12.4916 10.3915 12.4916 10.0498C12.4916 9.70814 12.2083 9.4248 11.8666 9.4248H3.39164C3.04997 9.4248 2.76664 9.70814 2.76664 10.0498C2.76664 10.3915 3.04997 10.6748 3.39164 10.6748Z" fill="#FF4F4F"/>
<path d="M10.2 17.2918C14.4916 17.2918 17.4916 14.2918 17.4916 10.0002C17.4916 5.7085 14.4916 2.7085 10.2 2.7085C9.8583 2.7085 9.57497 2.99183 9.57497 3.3335C9.57497 3.67516 9.8583 3.9585 10.2 3.9585C13.7583 3.9585 16.2416 6.44183 16.2416 10.0002C16.2416 13.5585 13.7583 16.0418 10.2 16.0418C9.8583 16.0418 9.57497 16.3252 9.57497 16.6668C9.57497 17.0085 9.8583 17.2918 10.2 17.2918Z" fill="#FF4F4F"/>
</svg>
