<svg width="120" height="39" viewBox="0 0 120 39" fill="none" xmlns="http://www.w3.org/2000/svg">
<path d="M0 37.6201V0.5074H5.50598V32.7998H22.0417V37.6201H0Z" fill="white"/>
<path d="M39.4239 38.1818C36.858 38.1818 34.6188 37.5838 32.7062 36.3878C30.7937 35.1918 29.3088 33.5186 28.2515 31.3682C27.1943 29.2178 26.6657 26.7049 26.6657 23.8297C26.6657 20.9423 27.1943 18.4174 28.2515 16.2549C29.3088 14.0924 30.7937 12.4132 32.7062 11.2172C34.6188 10.0211 36.858 9.42314 39.4239 9.42314C41.9898 9.42314 44.229 10.0211 46.1415 11.2172C48.0541 12.4132 49.5389 14.0924 50.5962 16.2549C51.6534 18.4174 52.182 20.9423 52.182 23.8297C52.182 26.7049 51.6534 29.2178 50.5962 31.3682C49.5389 33.5186 48.0541 35.1918 46.1415 36.3878C44.229 37.5838 41.9898 38.1818 39.4239 38.1818ZM39.4417 33.6333C41.1048 33.6333 42.4827 33.1864 43.5756 32.2924C44.6685 31.3984 45.4763 30.2084 45.999 28.7224C46.5335 27.2365 46.8008 25.5995 46.8008 23.8115C46.8008 22.0356 46.5335 20.4047 45.999 18.9188C45.4763 17.4207 44.6685 16.2187 43.5756 15.3126C42.4827 14.4065 41.1048 13.9535 39.4417 13.9535C37.7667 13.9535 36.3769 14.4065 35.2721 15.3126C34.1792 16.2187 33.3655 17.4207 32.8309 18.9188C32.3083 20.4047 32.0469 22.0356 32.0469 23.8115C32.0469 25.5995 32.3083 27.2365 32.8309 28.7224C33.3655 30.2084 34.1792 31.3984 35.2721 32.2924C36.3769 33.1864 37.7667 33.6333 39.4417 33.6333Z" fill="white"/>
<path d="M83.2534 12.232C82.9089 11.1326 82.4456 10.148 81.8635 9.27816C81.2933 8.39625 80.6103 7.64724 79.8144 7.03111C79.0185 6.4029 78.1097 5.9257 77.0881 5.59952C76.0784 5.27333 74.9677 5.11024 73.756 5.11024C71.7009 5.11024 69.8478 5.64784 68.1966 6.72305C66.5454 7.79825 65.2387 9.37481 64.2765 11.4527C63.3262 13.5186 62.851 16.0495 62.851 19.0456C62.851 22.0538 63.3321 24.5968 64.2943 26.6747C65.2565 28.7526 66.5751 30.3292 68.2501 31.4044C69.925 32.4796 71.8316 33.0172 73.9699 33.0172C75.9537 33.0172 77.6821 32.6065 79.1551 31.785C80.64 30.9635 81.7863 29.8037 82.5941 28.3056C83.4138 26.7955 83.8236 25.0196 83.8236 22.978L85.2491 23.2498H74.8073V18.6288H89.1514V22.8511C89.1514 25.968 88.498 28.6741 87.1913 30.9695C85.8965 33.2528 84.1028 35.0166 81.8101 36.261C79.5293 37.5053 76.9159 38.1275 73.9699 38.1275C70.6675 38.1275 67.769 37.3543 65.2743 35.8079C62.7916 34.2616 60.8553 32.0689 59.4654 29.2298C58.0756 26.3787 57.3806 22.9961 57.3806 19.0819C57.3806 16.122 57.7845 13.4642 58.5923 11.1084C59.4001 8.75264 60.5346 6.75325 61.9957 5.11024C63.4687 3.45515 65.1971 2.19269 67.1809 1.32286C69.1766 0.440955 71.3564 0 73.7204 0C75.6923 0 77.5277 0.295983 79.2264 0.887949C80.937 1.47992 82.4575 2.31954 83.788 3.40683C85.1303 4.49411 86.241 5.78677 87.12 7.28481C87.9991 8.77077 88.5931 10.4198 88.9019 12.232H83.2534Z" fill="white"/>
<path d="M107.242 38.1818C104.676 38.1818 102.437 37.5838 100.524 36.3878C98.6116 35.1918 97.1267 33.5186 96.0695 31.3682C95.0122 29.2178 94.4836 26.7049 94.4836 23.8297C94.4836 20.9423 95.0122 18.4174 96.0695 16.2549C97.1267 14.0924 98.6116 12.4132 100.524 11.2172C102.437 10.0211 104.676 9.42314 107.242 9.42314C109.808 9.42314 112.047 10.0211 113.959 11.2172C115.872 12.4132 117.357 14.0924 118.414 16.2549C119.471 18.4174 120 20.9423 120 23.8297C120 26.7049 119.471 29.2178 118.414 31.3682C117.357 33.5186 115.872 35.1918 113.959 36.3878C112.047 37.5838 109.808 38.1818 107.242 38.1818ZM107.26 33.6333C108.923 33.6333 110.301 33.1864 111.394 32.2924C112.486 31.3984 113.294 30.2084 113.817 28.7224C114.351 27.2365 114.619 25.5995 114.619 23.8115C114.619 22.0356 114.351 20.4047 113.817 18.9188C113.294 17.4207 112.486 16.2187 111.394 15.3126C110.301 14.4065 108.923 13.9535 107.26 13.9535C105.585 13.9535 104.195 14.4065 103.09 15.3126C101.997 16.2187 101.183 17.4207 100.649 18.9188C100.126 20.4047 99.8649 22.0356 99.8649 23.8115C99.8649 25.5995 100.126 27.2365 100.649 28.7224C101.183 30.2084 101.997 31.3984 103.09 32.2924C104.195 33.1864 105.585 33.6333 107.26 33.6333Z" fill="white"/>
</svg>
