<svg width="20" height="20" viewBox="0 0 20 20" fill="none" xmlns="http://www.w3.org/2000/svg">
<g clip-path="url(#clip0_109_1043)">
<path d="M9.99414 0C12.7592 0 15.2548 1.12478 17.0709 2.92912C18.8752 4.73345 20 7.24077 20 9.99414C20 12.7592 18.8752 15.2548 17.0709 17.0709C15.2548 18.8752 12.7592 20 9.99414 20C7.24077 20 4.73345 18.8752 2.92912 17.0709C1.12478 15.2548 0 12.7592 0 9.99414C0 7.24077 1.12478 4.73345 2.92912 2.92912C4.73345 1.12478 7.24077 0 9.99414 0ZM5.33099 4.54599C5.57704 4.29994 5.84651 4.06561 6.12771 3.85472C6.42062 3.64382 6.71353 3.45636 7.01816 3.29233C7.25249 3.17516 7.53368 3.25718 7.65085 3.47979C7.73286 3.64382 7.72115 3.81957 7.63913 3.96016C7.01816 5.14353 6.79555 6.4792 6.99473 7.77973C7.18219 9.04511 7.76801 10.2753 8.74048 11.2478C9.72466 12.232 10.9432 12.8178 12.2203 13.0053C13.5208 13.2045 14.8799 12.9818 16.075 12.3492L16.0633 12.3374C16.2976 12.2203 16.5788 12.3023 16.7077 12.5366C16.7897 12.6889 16.7663 12.8764 16.6842 13.017C16.5202 13.3099 16.3445 13.5911 16.1336 13.8606C15.9227 14.1418 15.7001 14.4112 15.454 14.6573C14.048 16.0633 12.2203 16.7545 10.3925 16.7545C8.56473 16.7545 6.72525 16.0633 5.33099 14.6573C3.93673 13.263 3.23374 11.4353 3.23374 9.6075C3.23374 7.76801 3.93673 5.94025 5.33099 4.54599ZM16.403 3.58524C14.7627 1.95665 12.5015 0.937317 9.99414 0.937317C7.49854 0.937317 5.22554 1.95665 3.58524 3.58524C1.95665 5.22554 0.937317 7.49854 0.937317 9.99414C0.937317 12.5015 1.95665 14.7627 3.58524 16.403C5.22554 18.0434 7.49854 19.0627 9.99414 19.0627C12.5015 19.0627 14.7627 18.0434 16.403 16.403C18.0434 14.7627 19.0627 12.5015 19.0627 9.99414C19.0627 7.49854 18.0434 5.22554 16.403 3.58524Z" fill="url(#paint0_linear_109_1043)"/>
</g>
<defs>
<linearGradient id="paint0_linear_109_1043" x1="10" y1="0" x2="10" y2="20" gradientUnits="userSpaceOnUse">
<stop stop-color="#7A36CA"/>
<stop offset="1" stop-color="#38498D"/>
</linearGradient>
<clipPath id="clip0_109_1043">
<rect width="20" height="20" fill="white"/>
</clipPath>
</defs>
</svg>
