<svg width="24" height="24" viewBox="0 0 24 24" fill="none" xmlns="http://www.w3.org/2000/svg">
<path d="M13.4062 4.3703C13.0179 4.3703 12.7031 4.05548 12.7031 3.66717V2.10937C12.7031 1.72167 12.3877 1.40625 12 1.40625C11.6123 1.40625 11.2969 1.72167 11.2969 2.10937V3.66717C11.2969 4.05548 10.9821 4.3703 10.5938 4.3703C10.2054 4.3703 9.89062 4.05548 9.89062 3.66717V2.10937C9.89062 0.946266 10.8369 0 12 0C13.1631 0 14.1094 0.946266 14.1094 2.10937V3.66717C14.1094 4.05548 13.7946 4.3703 13.4062 4.3703Z" fill="#ED9422"/>
<path d="M12.7031 2.10937V3.66717C12.7031 4.05548 13.0179 4.3703 13.4062 4.3703C13.7946 4.3703 14.1094 4.05548 14.1094 3.66717V2.10937C14.1094 0.946266 13.1631 0 12 0V1.40625C12.3878 1.40625 12.7031 1.72167 12.7031 2.10937Z" fill="#C97307"/>
<path d="M12 24C10.0615 24 8.48438 22.4229 8.48438 20.4844C8.48438 20.0961 8.79919 19.7812 9.1875 19.7812H14.8125C15.2008 19.7812 15.5156 20.0961 15.5156 20.4844C15.5156 22.4229 13.9386 24 12 24Z" fill="#ED9422"/>
<path d="M14.8125 19.7812H12V24C13.9385 24 15.5156 22.4229 15.5156 20.4844C15.5156 20.0961 15.2008 19.7812 14.8125 19.7812Z" fill="#C97307"/>
<path d="M21.8437 21.1875H2.15622C2.01842 21.1875 1.88365 21.147 1.76867 21.071C1.65369 20.9951 1.56356 20.887 1.5095 20.7602C1.45543 20.6335 1.43981 20.4936 1.46457 20.3581C1.48932 20.2225 1.55337 20.0972 1.64876 19.9977C3.63851 17.9227 4.73435 15.1965 4.73435 12.3217V10.0781C4.73435 6.07186 7.99371 2.8125 12 2.8125C16.0062 2.8125 19.2656 6.07186 19.2656 10.0781V12.3217C19.2656 15.1966 20.3614 17.9227 22.3512 19.9977C22.4466 20.0972 22.5107 20.2225 22.5354 20.3581C22.5602 20.4936 22.5446 20.6335 22.4905 20.7603C22.4364 20.887 22.3463 20.9951 22.2313 21.071C22.1163 21.147 21.9815 21.1875 21.8437 21.1875Z" fill="#FFBC66"/>
<path d="M21.8438 21.1875C21.9816 21.1875 22.1163 21.147 22.2313 21.071C22.3463 20.9951 22.4364 20.887 22.4905 20.7603C22.5446 20.6335 22.5602 20.4936 22.5355 20.3581C22.5107 20.2225 22.4466 20.0972 22.3513 19.9977C20.3615 17.9227 19.2656 15.1965 19.2656 12.3217V10.0781C19.2656 6.07186 16.0063 2.8125 12 2.8125V21.1875H21.8438Z" fill="#ED9422"/>
<path d="M21.8437 10.7813C21.4554 10.7813 21.1406 10.4665 21.1406 10.0781C21.1406 7.63656 20.1898 5.34114 18.4634 3.61473C18.1888 3.34014 18.1888 2.89497 18.4634 2.62037C18.7379 2.34578 19.1832 2.34578 19.4578 2.62037C21.4498 4.61237 22.5469 7.26095 22.5469 10.0781C22.5469 10.4665 22.232 10.7813 21.8437 10.7813Z" fill="#084883"/>
<path d="M2.15625 10.7813C1.76794 10.7813 1.45312 10.4665 1.45312 10.0781C1.45312 7.26095 2.55019 4.61242 4.54223 2.62037C4.81678 2.34578 5.262 2.34578 5.53659 2.62037C5.81119 2.89497 5.81119 3.34014 5.53659 3.61473C3.81019 5.34119 2.85938 7.63661 2.85938 10.0781C2.85938 10.4665 2.54456 10.7813 2.15625 10.7813Z" fill="#417AB0"/>
</svg>
