<svg width="24" height="24" viewBox="0 0 24 24" fill="none" xmlns="http://www.w3.org/2000/svg">
<path d="M12 10.6431C11.6242 10.6431 11.3125 10.3314 11.3125 9.95558V6.90308C11.3125 6.52724 11.6242 6.21558 12 6.21558C12.3758 6.21558 12.6875 6.52724 12.6875 6.90308V9.95558C12.6875 10.3406 12.3758 10.6431 12 10.6431Z" fill="white"/>
<path d="M12.0184 19.6542C9.65335 19.6542 7.29752 19.2784 5.05169 18.5267C4.21752 18.2517 3.58502 17.6559 3.31002 16.9042C3.03502 16.1526 3.12669 15.2909 3.57585 14.5392L4.74002 12.5959C4.99669 12.1651 5.22585 11.3584 5.22585 10.8542V8.92922C5.22585 5.18005 8.26919 2.13672 12.0184 2.13672C15.7675 2.13672 18.8109 5.18005 18.8109 8.92922V10.8542C18.8109 11.3492 19.04 12.1651 19.2967 12.5959L20.4609 14.5392C20.8917 15.2542 20.965 16.1067 20.6809 16.8859C20.3967 17.6651 19.7734 18.2609 18.985 18.5267C16.7392 19.2876 14.3834 19.6542 12.0184 19.6542ZM12.0184 3.52089C9.03002 3.52089 6.60085 5.95005 6.60085 8.93839V10.8634C6.60085 11.6059 6.30752 12.6784 5.92252 13.3109L4.75835 15.2634C4.52002 15.6576 4.46502 16.0792 4.60252 16.4459C4.74002 16.8126 5.05169 17.0876 5.49169 17.2342C9.70835 18.6367 14.3467 18.6367 18.5634 17.2342C18.9575 17.1059 19.26 16.8126 19.3975 16.4276C19.5442 16.0426 19.4984 15.6209 19.2875 15.2634L18.1234 13.3201C17.7384 12.6876 17.445 11.6151 17.445 10.8726V8.94755C17.4359 5.95005 15.0067 3.52089 12.0184 3.52089Z" fill="white"/>
<path d="M12.0001 21.9915C11.0192 21.9915 10.0567 21.5881 9.36007 20.8915C8.6634 20.1948 8.26007 19.2323 8.26007 18.2515H9.63507C9.63507 18.8748 9.89174 19.4798 10.3317 19.9198C10.7717 20.3598 11.3767 20.6165 12.0001 20.6165C13.3017 20.6165 14.3651 19.5531 14.3651 18.2515H15.7401C15.7401 20.314 14.0626 21.9915 12.0001 21.9915Z" fill="white"/>
</svg>
