<svg width="24" height="24" viewBox="0 0 24 24" fill="none" xmlns="http://www.w3.org/2000/svg">
<path d="M19.5075 13.8886L18.4716 12.1652C18.2425 11.7894 18.0408 11.0652 18.0408 10.6252V8.91106C18.0408 5.58356 15.3366 2.87939 12.0183 2.87939C8.6908 2.88856 5.98663 5.58356 5.98663 8.91106V10.6161C5.98663 11.0561 5.78496 11.7802 5.56496 12.1561L4.52913 13.8794C4.13496 14.5486 4.0433 15.3094 4.2908 15.9694C4.5383 16.6386 5.09746 17.1702 5.8308 17.4086C6.8208 17.7386 7.81996 17.9769 8.83746 18.1511C8.9383 18.1694 9.03913 18.1786 9.13996 18.1969C9.2683 18.2152 9.40579 18.2336 9.54329 18.2519C9.78163 18.2886 10.02 18.3161 10.2675 18.3344C10.845 18.3894 11.4316 18.4169 12.0183 18.4169C12.5958 18.4169 13.1733 18.3894 13.7416 18.3344C13.9525 18.3161 14.1633 18.2977 14.365 18.2702C14.53 18.2519 14.695 18.2336 14.86 18.2061C14.9608 18.1969 15.0616 18.1786 15.1625 18.1602C16.1891 17.9952 17.2066 17.7386 18.1966 17.4086C18.9025 17.1702 19.4433 16.6386 19.7 15.9602C19.9566 15.2727 19.8833 14.5211 19.5075 13.8886ZM12.6875 10.1669C12.6875 10.5519 12.3758 10.8636 11.9908 10.8636C11.6058 10.8636 11.2941 10.5519 11.2941 10.1669V7.32523C11.2941 6.94023 11.6058 6.62856 11.9908 6.62856C12.3758 6.62856 12.6875 6.94023 12.6875 7.32523V10.1669Z" fill="#B61AA5"/>
<path d="M14.5943 19.3429C14.2093 20.4062 13.1918 21.1671 12.0001 21.1671C11.2759 21.1671 10.5609 20.8737 10.0568 20.3512C9.76343 20.0762 9.54343 19.7096 9.4151 19.3337C9.53427 19.3521 9.65343 19.3612 9.78177 19.3796C9.9926 19.4071 10.2126 19.4346 10.4326 19.4529C10.9551 19.4987 11.4868 19.5262 12.0184 19.5262C12.5409 19.5262 13.0634 19.4987 13.5768 19.4529C13.7693 19.4346 13.9618 19.4254 14.1451 19.3979C14.2918 19.3796 14.4384 19.3612 14.5943 19.3429Z" fill="#B61AA5"/>
</svg>
