<svg width="20" height="20" viewBox="0 0 20 20" fill="none" xmlns="http://www.w3.org/2000/svg">
<path fill-rule="evenodd" clip-rule="evenodd" d="M11.6321 5.53457V4.50254C11.6321 4.00957 11.3594 3.58652 10.9938 3.49082C10.7098 3.72363 10.3508 3.86309 9.96174 3.86309C9.58206 3.86309 9.23127 3.73027 8.94885 3.50762C8.60901 3.6291 8.36331 4.03535 8.36331 4.50254V5.53457H11.6321ZM17.1946 15.3127C16.8133 15.3127 16.4641 15.1803 16.1817 14.9576C15.8418 15.0791 15.5961 15.485 15.5961 15.9521V16.9846H18.8649V15.9521C18.8649 15.4592 18.5922 15.0365 18.2266 14.9404C17.943 15.1732 17.584 15.3127 17.1946 15.3127ZM15.9824 13.5584C15.9824 14.2674 16.5266 14.8439 17.1949 14.8439C17.8633 14.8439 18.4074 14.2674 18.4074 13.5584C18.4074 12.8494 17.8633 12.2729 17.1949 12.2729C16.5262 12.2729 15.9824 12.8494 15.9824 13.5584ZM2.57268 14.8818C3.24104 14.8818 3.78362 14.3053 3.78362 13.5963C3.78362 12.8877 3.24104 12.3107 2.57268 12.3107C1.90432 12.3107 1.36018 12.8877 1.36018 13.5963C1.36018 14.3053 1.90432 14.8818 2.57268 14.8818ZM4.24299 17.0225V15.9904C4.24299 15.4975 3.96877 15.0744 3.60471 14.9787C3.32073 15.2115 2.96174 15.3506 2.57268 15.3506C2.19143 15.3506 1.84065 15.2182 1.55979 14.9955C1.21995 15.117 0.974243 15.5232 0.974243 15.9904V17.0225H4.24299ZM6.5594 17.1119L5.68518 17.2803C5.62151 17.2928 5.56565 17.3307 5.53206 17.3854C5.4969 17.44 5.48596 17.5068 5.50315 17.5693L5.7551 18.5424C5.78206 18.6479 5.8762 18.7178 5.98167 18.7178C6.00081 18.7178 6.01995 18.7154 6.04065 18.7104C6.16526 18.6779 6.23987 18.5498 6.20823 18.4248L6.12698 18.1115C7.14143 18.7791 8.5344 19.1717 9.97932 19.1811H10.0321C11.8012 19.1811 13.35 18.6076 14.2883 17.6037C14.3095 17.5814 14.326 17.5551 14.337 17.5263C14.348 17.4975 14.3532 17.4669 14.3523 17.4361C14.3515 17.4054 14.3445 17.3751 14.3319 17.347C14.3193 17.3189 14.3013 17.2936 14.2789 17.2725C14.1832 17.1838 14.0348 17.1889 13.9473 17.2834C12.1703 19.183 8.30159 19.0643 6.27424 17.6443L6.64924 17.5721C6.77698 17.5479 6.85979 17.4248 6.83596 17.2979C6.80979 17.1705 6.68674 17.0873 6.5594 17.1119ZM7.14768 6.95684L7.40627 5.79434C7.42073 5.73184 7.40784 5.6666 7.37268 5.61309C7.35528 5.58686 7.33273 5.56445 7.30641 5.54719C7.28009 5.52994 7.25054 5.5182 7.21956 5.5127L6.11252 5.31582C6.08225 5.31041 6.05121 5.31104 6.02118 5.31766C5.99115 5.32428 5.96272 5.33677 5.93753 5.35441C5.91234 5.37205 5.89088 5.39449 5.87439 5.42045C5.8579 5.44641 5.8467 5.47537 5.84143 5.50566C5.8176 5.63301 5.90354 5.75488 6.02971 5.77754L6.56877 5.87324C4.9512 6.84004 3.87424 8.26973 3.36721 10.1271C3.35109 10.1871 3.35933 10.251 3.39014 10.305C3.42094 10.3589 3.47181 10.3985 3.53167 10.415C3.55237 10.4205 3.57307 10.4232 3.59377 10.4232C3.69729 10.4232 3.79143 10.3549 3.82034 10.2506C4.29573 8.51035 5.30393 7.17207 6.82112 6.26855L6.69026 6.85488C6.66331 6.98145 6.74299 7.10644 6.86877 7.13457C6.88635 7.13848 6.90237 7.14043 6.91995 7.14043C7.02659 7.14043 7.12385 7.06582 7.14768 6.95684ZM16.311 9.6748C15.7285 8.00644 14.6438 6.71816 13.0821 5.84238C12.9688 5.7791 12.8254 5.81934 12.7629 5.93223C12.7477 5.95903 12.738 5.98858 12.7343 6.01915C12.7306 6.04973 12.733 6.08074 12.7413 6.1104C12.7496 6.14005 12.7637 6.16778 12.7828 6.19197C12.8018 6.21616 12.8255 6.23635 12.8524 6.25137C14.3121 7.06934 15.3266 8.27363 15.8692 9.8334L15.416 9.62168C15.2996 9.56699 15.1594 9.61738 15.1051 9.73457C15.0508 9.85176 15.1004 9.99121 15.2184 10.0463L16.1516 10.4826C16.1836 10.4975 16.2168 10.5045 16.2504 10.5045C16.2924 10.5044 16.3336 10.4932 16.3698 10.4719C16.406 10.4506 16.4358 10.4201 16.4563 10.3834L16.943 9.49941C17.0051 9.38613 16.9637 9.24355 16.8504 9.18105C16.7371 9.11895 16.5953 9.15996 16.5313 9.27324L16.311 9.6748ZM9.96174 3.39434C10.6301 3.39434 11.1742 2.81738 11.1742 2.10879C11.1742 1.3998 10.6301 0.823242 9.96174 0.823242C9.29338 0.823242 8.74924 1.3998 8.74924 2.10879C8.74963 2.81738 9.29338 3.39434 9.96174 3.39434Z" fill="url(#paint0_linear_17_380)"/>
<defs>
<linearGradient id="paint0_linear_17_380" x1="9.91956" y1="0.823242" x2="9.91956" y2="19.1811" gradientUnits="userSpaceOnUse">
<stop stop-color="#7A36CA"/>
<stop offset="1" stop-color="#38498D"/>
</linearGradient>
</defs>
</svg>
