<svg width="21" height="20" viewBox="0 0 21 20" fill="none" xmlns="http://www.w3.org/2000/svg">
<path d="M11.0109 9.68341C10.9859 9.68341 10.9692 9.68341 10.9442 9.68341C10.9026 9.67508 10.8442 9.67508 10.7942 9.68341C8.37755 9.60841 6.55255 7.70841 6.55255 5.36675C6.55255 2.98341 8.49422 1.04175 10.8776 1.04175C13.2609 1.04175 15.2026 2.98341 15.2026 5.36675C15.1942 7.70841 13.3609 9.60841 11.0359 9.68341C11.0276 9.68341 11.0192 9.68341 11.0109 9.68341ZM10.8776 2.29175C9.18588 2.29175 7.80255 3.67508 7.80255 5.36675C7.80255 7.03341 9.10255 8.37508 10.7609 8.43341C10.8026 8.42508 10.9192 8.42508 11.0276 8.43341C12.6609 8.35841 13.9442 7.01675 13.9526 5.36675C13.9526 3.67508 12.5692 2.29175 10.8776 2.29175Z" fill="black"/>
<path d="M11.0192 18.7916C9.38588 18.7916 7.74421 18.3749 6.50254 17.5416C5.34421 16.7749 4.71088 15.7249 4.71088 14.5833C4.71088 13.4416 5.34421 12.3833 6.50254 11.6083C9.00254 9.94992 13.0525 9.94992 15.5359 11.6083C16.6859 12.3749 17.3275 13.4249 17.3275 14.5666C17.3275 15.7083 16.6942 16.7666 15.5359 17.5416C14.2859 18.3749 12.6525 18.7916 11.0192 18.7916ZM7.19421 12.6583C6.39421 13.1916 5.96088 13.8749 5.96088 14.5916C5.96088 15.2999 6.40254 15.9833 7.19421 16.5083C9.26921 17.8999 12.7692 17.8999 14.8442 16.5083C15.6442 15.9749 16.0775 15.2916 16.0775 14.5749C16.0775 13.8666 15.6359 13.1833 14.8442 12.6583C12.7692 11.2749 9.26921 11.2749 7.19421 12.6583Z" fill="black"/>
</svg>
