<svg width="21" height="20" viewBox="0 0 21 20" fill="none" xmlns="http://www.w3.org/2000/svg">
<path d="M10.082 1.66699C7.89869 1.66699 6.12369 3.44199 6.12369 5.62533C6.12369 7.76699 7.79869 9.50033 9.98202 9.57533C10.0487 9.56699 10.1154 9.56699 10.1654 9.57533C10.182 9.57533 10.1904 9.57533 10.207 9.57533C10.2154 9.57533 10.2154 9.57533 10.2237 9.57533C12.357 9.50033 14.032 7.76699 14.0404 5.62533C14.0404 3.44199 12.2654 1.66699 10.082 1.66699Z" fill="#F07508"/>
<path d="M14.3154 11.7914C11.9904 10.2414 8.1987 10.2414 5.85703 11.7914C4.7987 12.4997 4.21536 13.4581 4.21536 14.4831C4.21536 15.5081 4.7987 16.4581 5.8487 17.1581C7.01536 17.9414 8.5487 18.3331 10.082 18.3331C11.6154 18.3331 13.1487 17.9414 14.3154 17.1581C15.3654 16.4497 15.9487 15.4997 15.9487 14.4664C15.9404 13.4414 15.3654 12.4914 14.3154 11.7914Z" fill="#F07508"/>
</svg>
