<svg width="25" height="24" viewBox="0 0 25 24" fill="none" xmlns="http://www.w3.org/2000/svg">
<g clip-path="url(#clip0_150_591)">
<path d="M7.28163 13.7533V11.6083L8.96351 13.9276C8.99459 13.9695 9.03502 14.0035 9.08157 14.0269C9.12813 14.0503 9.17951 14.0626 9.23163 14.0626C9.31571 14.0641 9.397 14.0325 9.45802 13.9747C9.51904 13.9168 9.5549 13.8373 9.55788 13.7533V10.6239C9.55387 10.5403 9.51784 10.4615 9.45727 10.4038C9.3967 10.346 9.31624 10.3138 9.23257 10.3138C9.1489 10.3138 9.06843 10.346 9.00786 10.4038C8.9473 10.4615 8.91127 10.5403 8.90726 10.6239V12.7783L7.21788 10.4439C7.18863 10.4018 7.14926 10.3677 7.10339 10.3447C7.05752 10.3218 7.00663 10.3108 6.95538 10.3126C6.8714 10.312 6.79047 10.3441 6.72987 10.4023C6.66927 10.4604 6.63379 10.5399 6.63101 10.6239V13.7533C6.63502 13.8368 6.67105 13.9157 6.73161 13.9734C6.79218 14.0311 6.87265 14.0633 6.95632 14.0633C7.03999 14.0633 7.12045 14.0311 7.18102 13.9734C7.24159 13.9157 7.27762 13.8368 7.28163 13.7533ZM14.2698 14.0626C14.3412 14.0639 14.4111 14.0416 14.4687 13.9993C14.5263 13.9569 14.5684 13.8969 14.5885 13.8283L15.2448 11.597L15.901 13.8283C15.9221 13.8948 15.9633 13.953 16.019 13.995C16.0747 14.0369 16.1422 14.0605 16.2119 14.0623C16.2816 14.0642 16.3502 14.0443 16.408 14.0053C16.4659 13.9664 16.5102 13.9104 16.5348 13.8451L17.5098 10.727C17.5213 10.6952 17.527 10.6615 17.5266 10.6276C17.5228 10.5512 17.4927 10.4784 17.4413 10.4216C17.39 10.3648 17.3206 10.3275 17.2449 10.3161C17.1692 10.3046 17.0919 10.3196 17.026 10.3586C16.9602 10.3977 16.9098 10.4582 16.8835 10.5301L16.216 12.8158L15.5654 10.5414C15.5435 10.4739 15.5005 10.4153 15.4428 10.3741C15.3851 10.3329 15.3157 10.3114 15.2448 10.3126C15.174 10.3112 15.1047 10.3327 15.0473 10.3739C14.9898 10.4151 14.9472 10.4739 14.926 10.5414L14.2754 12.8158L13.6079 10.5301C13.5812 10.4584 13.5307 10.398 13.4647 10.3591C13.3988 10.3203 13.3214 10.3053 13.2458 10.3167C13.1701 10.3282 13.1006 10.3653 13.0491 10.4219C12.9976 10.4786 12.9671 10.5512 12.9629 10.6276C12.9625 10.6615 12.9682 10.6952 12.9798 10.727L13.9566 13.8451C13.9791 13.9098 14.0216 13.9657 14.0778 14.0048C14.1341 14.0439 14.2013 14.0641 14.2698 14.0626ZM12.3235 10.922C12.3619 10.924 12.4003 10.9181 12.4364 10.9048C12.4725 10.8915 12.5054 10.8709 12.5333 10.8444C12.5612 10.818 12.5834 10.7861 12.5986 10.7507C12.6138 10.7154 12.6216 10.6773 12.6216 10.6389C12.6216 10.6004 12.6138 10.5624 12.5986 10.527C12.5834 10.4917 12.5612 10.4598 12.5333 10.4333C12.5054 10.4068 12.4725 10.3863 12.4364 10.373C12.4003 10.3596 12.3619 10.3538 12.3235 10.3558H10.5441C10.4584 10.3543 10.3756 10.3867 10.3138 10.4461C10.2519 10.5055 10.2161 10.5869 10.2141 10.6726V13.7045C10.2165 13.7899 10.2525 13.8709 10.3143 13.9299C10.3761 13.9889 10.4587 14.0211 10.5441 14.0195H12.3873C12.4257 14.0215 12.4641 14.0156 12.5001 14.0023C12.5362 13.989 12.5692 13.9684 12.5971 13.9419C12.625 13.9155 12.6472 13.8836 12.6623 13.8482C12.6775 13.8129 12.6853 13.7748 12.6853 13.7364C12.6853 13.6979 12.6775 13.6599 12.6623 13.6245C12.6472 13.5892 12.625 13.5573 12.5971 13.5308C12.5692 13.5043 12.5362 13.4838 12.5001 13.4705C12.4641 13.4571 12.4257 13.4513 12.3873 13.4533H10.8741V12.452H11.9541C11.9918 12.454 12.0294 12.4482 12.0648 12.4352C12.1002 12.4221 12.1325 12.402 12.1599 12.376C12.1872 12.3501 12.209 12.3188 12.2239 12.2842C12.2388 12.2495 12.2464 12.2122 12.2464 12.1745C12.2464 12.1368 12.2388 12.0995 12.2239 12.0648C12.209 12.0302 12.1872 11.9989 12.1599 11.973C12.1325 11.947 12.1002 11.9269 12.0648 11.9138C12.0294 11.9008 11.9918 11.8951 11.9541 11.897H10.8741V10.922H12.3235ZM10.171 20.5651C10.326 20.1864 10.5902 19.8624 10.9299 19.6343C11.2697 19.4063 11.6696 19.2845 12.0788 19.2845C12.488 19.2845 12.888 19.4063 13.2277 19.6343C13.5675 19.8624 13.8317 20.1864 13.9866 20.5651C15.2758 20.2681 16.4798 19.6796 17.5062 18.845C18.5326 18.0103 19.3542 16.9516 19.9079 15.7501H4.24976C4.80345 16.9516 5.62503 18.0103 6.65145 18.845C7.67787 19.6796 8.88184 20.2681 10.171 20.5651ZM18.6198 6.77826C18.5673 6.82139 18.5129 6.86451 18.4566 6.90389C18.4004 6.94326 18.3423 6.98076 18.2823 7.01451C18.2523 7.03139 18.2223 7.04826 18.1904 7.06514C18.1604 7.08014 18.1304 7.09514 18.0985 7.11014C18.0666 7.12514 18.0348 7.13826 18.0029 7.15139C17.9051 7.18972 17.8048 7.22167 17.7029 7.24701C17.6691 7.25639 17.6335 7.26389 17.5979 7.27139C17.5641 7.27701 17.5285 7.28451 17.4929 7.28826C17.4573 7.29389 17.4216 7.29764 17.386 7.30139C17.3748 7.30326 17.3616 7.30326 17.3504 7.30514C17.2904 7.31076 17.2285 7.31264 17.1666 7.31264C16.57 7.31214 15.998 7.07493 15.5762 6.65308C15.1543 6.23123 14.9171 5.65922 14.9166 5.06264C14.9177 4.74971 14.9848 4.44054 15.1135 4.15532C15.1094 4.1519 15.1056 4.14827 15.1019 4.14445L15.0955 4.14239L15.0948 4.14389C14.7337 4.00709 14.3634 3.89618 13.9866 3.81201C13.8312 4.1903 13.5669 4.51385 13.2272 4.74155C12.8875 4.96925 12.4878 5.09083 12.0788 5.09083C11.6699 5.09083 11.2701 4.96925 10.9304 4.74155C10.5907 4.51385 10.3264 4.1903 10.171 3.81201C8.88182 4.10838 7.67773 4.69634 6.65125 5.53072C5.62477 6.36509 4.80323 7.42368 4.24976 8.62514H19.9041C19.5871 7.93635 19.1812 7.29211 18.6966 6.70889C18.6704 6.73139 18.646 6.75576 18.6198 6.77826Z" fill="#B61AA5"/>
<path d="M17.1664 3.92892C17.4279 3.90596 17.6862 3.85537 17.937 3.77798C17.6907 3.63024 17.4072 3.55637 17.1201 3.56515C16.833 3.57394 16.5545 3.66501 16.3177 3.82754C16.0809 3.99007 15.8957 4.2172 15.7843 4.48193C15.6729 4.74665 15.6398 5.03781 15.6891 5.32076C15.7384 5.60372 15.8679 5.86656 16.0623 6.07802C16.2567 6.28947 16.5077 6.44063 16.7855 6.51351C17.0634 6.58639 17.3563 6.57793 17.6294 6.48913C17.9026 6.40033 18.1444 6.23493 18.3263 6.01261C17.9474 6.11191 17.5585 6.16771 17.167 6.17892H17.16C16.8617 6.17808 16.5759 6.05874 16.3655 5.84716C16.1551 5.63559 16.0374 5.3491 16.0382 5.05073C16.0391 4.75236 16.1584 4.46655 16.37 4.25617C16.5816 4.04579 16.868 3.92808 17.1664 3.92892Z" fill="#B61AA5"/>
<path d="M0.812887 15.8027C1.08476 16.6427 1.71851 17.252 2.27914 17.7902C2.57458 18.0565 2.84681 18.3476 3.09289 18.6602C3.3087 18.9864 3.49566 19.3308 3.65164 19.6895C3.98726 20.3945 4.36789 21.1952 5.09164 21.722C5.78726 22.2302 6.61414 22.3464 7.41289 22.4589C7.82155 22.502 8.22561 22.5811 8.62039 22.6952C9.00592 22.8373 9.37854 23.0124 9.73414 23.2183C10.4448 23.6008 11.1798 23.9964 12.0423 24.0002H12.0516C12.9441 24.0002 13.7223 23.5839 14.4085 23.2145C14.7469 23.0179 15.102 22.8516 15.4698 22.7177C15.8533 22.6109 16.2454 22.5375 16.6416 22.4983C17.4123 22.3952 18.286 22.2808 19.0041 21.7652C19.7148 21.2533 20.101 20.4639 20.4404 19.7683C20.6054 19.4024 20.8011 19.0512 21.0254 18.7183C21.2655 18.4186 21.5308 18.1401 21.8185 17.8858C22.3904 17.3477 23.0373 16.7364 23.3223 15.872C23.6054 15.0077 23.4479 14.1339 23.3073 13.3614C23.2265 12.9869 23.1781 12.6061 23.1629 12.2233C23.18 11.8221 23.2314 11.4232 23.3166 11.0308C23.4554 10.2695 23.6148 9.40515 23.3448 8.57265C23.0729 7.73265 22.4391 7.12328 21.8785 6.58515C21.5836 6.31827 21.3114 6.02726 21.0648 5.71515C20.9211 5.50539 20.7942 5.28465 20.6853 5.05496C20.248 5.30274 19.7932 5.51801 19.3244 5.69903C19.3214 5.7099 19.3186 5.72115 19.3154 5.73203C19.2745 5.85711 19.2237 5.97874 19.1635 6.09578L19.1654 6.09765C20.2444 7.3431 20.9736 8.8526 21.2785 10.472C21.2966 10.5689 21.2758 10.669 21.2208 10.7507C21.1657 10.8325 21.0807 10.8893 20.9841 10.9089C20.6898 10.9695 20.4253 11.1298 20.2354 11.3628C20.0455 11.5957 19.9418 11.8871 19.9418 12.1877C19.9418 12.4882 20.0455 12.7796 20.2354 13.0125C20.4253 13.2455 20.6898 13.4058 20.9841 13.4664C21.0806 13.4863 21.1654 13.5431 21.2205 13.6248C21.2755 13.7064 21.2963 13.8064 21.2785 13.9033C20.9247 15.7548 20.022 17.457 18.6877 18.7886C17.3535 20.1201 15.6495 21.0194 13.7973 21.3695C13.7004 21.3873 13.6004 21.3665 13.5188 21.3115C13.4371 21.2564 13.3802 21.1716 13.3604 21.0752C13.2986 20.781 13.1376 20.517 12.9042 20.3276C12.6708 20.1381 12.3794 20.0347 12.0788 20.0347C11.7782 20.0347 11.4868 20.1381 11.2535 20.3276C11.0201 20.517 10.859 20.781 10.7973 21.0752C10.7798 21.1598 10.7337 21.2358 10.6668 21.2904C10.5998 21.345 10.5162 21.375 10.4298 21.3752C10.4065 21.3751 10.3833 21.3733 10.3604 21.3695C8.50817 21.0194 6.80415 20.1201 5.46991 18.7886C4.13567 17.457 3.23295 15.7548 2.87914 13.9033C2.86132 13.8064 2.88216 13.7064 2.93719 13.6248C2.99222 13.5431 3.07706 13.4863 3.17351 13.4664C3.46789 13.4058 3.73235 13.2455 3.92225 13.0125C4.11214 12.7796 4.21584 12.4882 4.21584 12.1877C4.21584 11.8871 4.11214 11.5957 3.92225 11.3628C3.73235 11.1298 3.46789 10.9695 3.17351 10.9089C3.07694 10.8893 2.99195 10.8325 2.93688 10.7507C2.88181 10.669 2.86107 10.5689 2.87914 10.472C3.23324 8.62064 4.13605 6.91859 5.47024 5.58707C6.80443 4.25555 8.5083 3.35616 10.3604 3.00578C10.4572 2.98796 10.5572 3.0088 10.6389 3.06383C10.7206 3.11886 10.7774 3.2037 10.7973 3.30015C10.859 3.59432 11.0201 3.85829 11.2535 4.04774C11.4868 4.2372 11.7782 4.3406 12.0788 4.3406C12.3794 4.3406 12.6708 4.2372 12.9042 4.04774C13.1376 3.85829 13.2986 3.59432 13.3604 3.30015C13.3806 3.20389 13.4375 3.11929 13.5191 3.06433C13.6007 3.00936 13.7005 2.98836 13.7973 3.00578C14.3851 3.11633 14.961 3.28264 15.5172 3.50246C15.5269 3.50502 15.5365 3.50808 15.5459 3.51165C15.7524 3.29352 16.0008 3.11923 16.2761 2.99915C16.5515 2.87908 16.8482 2.81569 17.1486 2.81277C17.4489 2.80985 17.7468 2.86745 18.0245 2.98215C18.3021 3.09684 18.5538 3.26627 18.7645 3.48034C19.0311 3.36528 19.2916 3.23673 19.5451 3.09521C19.4017 2.93112 19.2411 2.78295 19.066 2.65328C19.0173 2.61765 18.9666 2.58765 18.916 2.55578C19.7979 1.82504 20.7687 1.2089 21.8054 0.722026C21.8921 0.682137 21.9612 0.611815 21.9996 0.524385C22.0379 0.436954 22.0429 0.338491 22.0135 0.247651C21.9956 0.198121 21.9675 0.152927 21.9309 0.115028C21.8944 0.0771301 21.8502 0.0473825 21.8014 0.0277339C21.7525 0.00808522 21.7 -0.00102121 21.6474 0.00101094C21.5948 0.00304309 21.5432 0.016168 21.496 0.0395261C20.2898 0.597808 19.1712 1.32858 18.1754 2.2089C17.7084 2.06863 17.2295 1.97135 16.7448 1.91828C16.3362 1.87365 15.9322 1.79398 15.5373 1.68015C15.1517 1.53796 14.7791 1.36294 14.4235 1.15703C13.7129 0.774526 12.9779 0.378901 12.1173 0.375151H12.106C11.6758 0.382269 11.2505 0.468717 10.8516 0.630151C10.4732 0.783238 10.1049 0.960478 9.74914 1.16078C9.41074 1.35739 9.05561 1.52367 8.68789 1.65765C8.30432 1.76443 7.91223 1.83783 7.51601 1.87703C6.74539 1.98015 5.87164 2.09453 5.15351 2.61015C4.44289 3.12203 4.05664 3.9114 3.71726 4.60703C3.55262 4.9731 3.3569 5.32438 3.13226 5.65703C2.89216 5.95668 2.62682 6.2352 2.33914 6.48953C1.76914 7.02765 1.12039 7.6389 0.837262 8.50328C0.552262 9.36765 0.709762 10.2414 0.850387 11.0139C0.931085 11.3884 0.979389 11.7692 0.994762 12.152C0.977905 12.5532 0.926464 12.9522 0.841012 13.3445C0.702262 14.1058 0.544762 14.9702 0.812887 15.8027Z" fill="#B61AA5"/>
<path d="M17.1666 4.67891C17.1174 4.67869 17.0686 4.68817 17.023 4.70681C16.9774 4.72545 16.9359 4.75289 16.9009 4.78755C16.8303 4.85756 16.7904 4.95277 16.7899 5.05222C16.7895 5.15168 16.8286 5.24724 16.8986 5.31788C16.9686 5.38853 17.0638 5.42846 17.1632 5.42891H17.1698C17.3882 5.42891 20.793 5.34866 24.5845 0.609412C24.6466 0.531761 24.6754 0.432598 24.6645 0.333737C24.6535 0.234876 24.6037 0.144416 24.5261 0.0822554C24.4876 0.0514769 24.4435 0.0285727 24.3962 0.0148507C24.3489 0.0011286 24.2994 -0.00314259 24.2504 0.00228093C24.1515 0.0132342 24.0611 0.0630113 23.9989 0.140662C20.4194 4.61516 17.2135 4.67854 17.1683 4.67891H17.1666Z" fill="#B61AA5"/>
</g>
<defs>
<clipPath id="clip0_150_591">
<rect width="24" height="24" fill="white" transform="translate(0.666626)"/>
</clipPath>
</defs>
</svg>
