<svg width="24" height="24" viewBox="0 0 24 24" fill="none" xmlns="http://www.w3.org/2000/svg">
<g clip-path="url(#clip0_150_140)">
<path d="M2.50651 13.4668C2.41016 13.4865 2.32538 13.5431 2.27043 13.6247C2.21547 13.7062 2.19474 13.8061 2.2127 13.9028C2.56635 15.7543 3.46902 17.4566 4.80329 18.7882C6.13757 20.1197 7.84168 21.0189 9.69395 21.3688C9.79062 21.3869 9.8905 21.3662 9.97213 21.3114C10.0538 21.2566 10.1106 21.1719 10.1304 21.0756C10.1921 20.7813 10.3532 20.5171 10.5866 20.3276C10.82 20.138 11.1116 20.0345 11.4123 20.0345C11.713 20.0345 12.0045 20.138 12.238 20.3276C12.4714 20.5171 12.6325 20.7813 12.6941 21.0756C12.714 21.1719 12.7709 21.2566 12.8526 21.3115C12.9343 21.3663 13.0343 21.3869 13.131 21.3688C14.9832 21.0188 16.6872 20.1195 18.0214 18.7879C19.3556 17.4563 20.2582 15.7541 20.6119 13.9026C20.6297 13.8059 20.609 13.7061 20.554 13.6247C20.4991 13.5432 20.4144 13.4865 20.3181 13.4668C20.0235 13.4063 19.7588 13.246 19.5688 13.0129C19.3787 12.7798 19.275 12.4883 19.275 12.1876C19.275 11.8869 19.3787 11.5954 19.5688 11.3623C19.7588 11.1292 20.0235 10.9689 20.3181 10.9084C20.4144 10.8887 20.4991 10.832 20.554 10.7505C20.609 10.6691 20.6297 10.5693 20.6119 10.4726C20.3066 8.84858 19.5738 7.33533 18.4888 6.08888C18.3702 6.31829 18.2131 6.52567 18.0244 6.702C18.5117 7.28675 18.9196 7.93335 19.2375 8.625H3.58351C4.13704 7.42359 4.95852 6.36499 5.98486 5.53048C7.0112 4.69597 8.21513 4.10773 9.5042 3.81094C9.65943 4.18947 9.92375 4.51328 10.2635 4.74117C10.6033 4.96907 11.0032 5.09075 11.4123 5.09075C11.8214 5.09075 12.2213 4.96907 12.5611 4.74117C12.9008 4.51328 13.1652 4.18947 13.3204 3.81094C13.697 3.89661 14.0674 4.00793 14.4289 4.14413C14.5351 3.90833 14.6811 3.69256 14.8605 3.50625C14.3016 3.28358 13.7223 3.11616 13.1308 3.00638C13.0342 2.98863 12.9345 3.00934 12.8529 3.06409C12.7713 3.11884 12.7143 3.20329 12.6941 3.29944C12.6325 3.59375 12.4714 3.85788 12.238 4.04745C12.0045 4.23703 11.713 4.34051 11.4123 4.34051C11.1116 4.34051 10.82 4.23703 10.5866 4.04745C10.3532 3.85788 10.1921 3.59375 10.1304 3.29944C10.1105 3.20315 10.0536 3.11851 9.97196 3.06372C9.89031 3.00892 9.79043 2.98833 9.69376 3.00638C7.84151 3.35628 6.13743 4.2555 4.80319 5.58706C3.46895 6.91862 2.56631 8.6209 2.2127 10.4724C2.19479 10.5691 2.21555 10.6689 2.2705 10.7504C2.32545 10.8319 2.4102 10.8886 2.50651 10.9082C2.80109 10.9687 3.06575 11.129 3.2558 11.3621C3.44584 11.5952 3.54963 11.8867 3.54963 12.1874C3.54963 12.4881 3.44584 12.7796 3.2558 13.0127C3.06575 13.2458 2.80109 13.4063 2.50651 13.4668ZM13.3204 20.5641C13.1652 20.1855 12.9008 19.8617 12.5611 19.6338C12.2213 19.4059 11.8214 19.2843 11.4123 19.2843C11.0032 19.2843 10.6033 19.4059 10.2635 19.6338C9.92375 19.8617 9.65943 20.1855 9.5042 20.5641C8.21515 20.2673 7.01125 19.6791 5.98491 18.8446C4.95856 18.0101 4.13708 16.9516 3.58351 15.7502H19.2411C18.6875 16.9516 17.866 18.0101 16.8397 18.8446C15.8133 19.6791 14.6094 20.2673 13.3204 20.5641ZM3.01914 10.2834C3.08914 9.97605 3.17634 9.67282 3.28032 9.37519H19.5424C19.6471 9.67276 19.735 9.97599 19.8056 10.2834C19.4267 10.4372 19.1023 10.7006 18.8739 11.0398C18.6454 11.379 18.5234 11.7787 18.5234 12.1876C18.5234 12.5965 18.6454 12.9962 18.8739 13.3354C19.1023 13.6746 19.4267 13.938 19.8056 14.0918C19.7356 14.3992 19.6483 14.7025 19.5443 15.0002H3.28051C3.1764 14.7025 3.08908 14.3992 3.01895 14.0918C3.39788 13.938 3.72231 13.6746 3.95072 13.3354C4.17914 12.9962 4.30115 12.5965 4.30115 12.1876C4.30115 11.7787 4.17914 11.379 3.95072 11.0398C3.72231 10.7006 3.39807 10.4372 3.01914 10.2834Z" fill="white"/>
<path d="M0.146257 15.8025C0.417382 16.6424 1.05282 17.2525 1.61344 17.7908C1.90875 18.0567 2.18052 18.3477 2.42569 18.6604C2.64169 18.9866 2.82902 19.3309 2.98557 19.6894C3.32119 20.3948 3.70144 21.1943 4.42519 21.7223C5.12063 22.2297 5.94732 22.3457 6.74663 22.458C7.15536 22.5023 7.55953 22.5816 7.95469 22.695C8.34013 22.8375 8.71262 23.0128 9.06807 23.2189C9.77869 23.6014 10.5133 23.997 11.3747 24H11.3844C12.2766 24 13.0551 23.5829 13.7415 23.2148C14.0806 23.0187 14.4361 22.8522 14.8039 22.7174C15.1871 22.6106 15.5788 22.5372 15.9746 22.4978C16.7458 22.396 17.6199 22.2805 18.3373 21.7647C19.0483 21.2534 19.434 20.4644 19.7741 19.7684C19.9389 19.4023 20.1347 19.051 20.3593 18.7184C20.5988 18.4184 20.8638 18.1399 21.1515 17.8859C21.7228 17.3474 22.3703 16.7369 22.6549 15.8725C22.9393 15.0079 22.7805 14.1332 22.6404 13.3615C22.5596 12.9867 22.5116 12.6057 22.4968 12.2226C22.5136 11.8217 22.5646 11.4229 22.6494 11.0307C22.7891 10.2689 22.9472 9.40523 22.6783 8.57292C22.4072 7.73292 21.7718 7.1228 21.2111 6.58448C20.9158 6.31863 20.6441 6.02773 20.3989 5.71505C20.1829 5.3888 19.9955 5.04445 19.839 4.68586C19.7903 4.58348 19.74 4.47886 19.6884 4.37348C20.9117 3.67786 22.3828 2.52417 23.9175 0.609608C23.9797 0.531808 24.0084 0.432502 23.9973 0.333536C23.9863 0.234569 23.9363 0.144049 23.8585 0.0818894C23.7807 0.0197293 23.6814 -0.00897917 23.5825 0.00207961C23.4835 0.0131384 23.393 0.0630585 23.3308 0.140858C21.8711 1.96186 20.4737 3.05217 19.3262 3.70505C19.0899 3.29652 18.7749 2.93898 18.3994 2.65317C18.3506 2.61755 18.2998 2.58792 18.2498 2.55605C19.1311 1.82512 20.1016 1.20895 21.138 0.722296C21.225 0.682287 21.2943 0.611788 21.3328 0.524134C21.3714 0.436479 21.3764 0.337746 21.3471 0.246608C21.3289 0.197133 21.3006 0.152021 21.2639 0.1142C21.2272 0.0763792 21.183 0.0466935 21.1341 0.027069C21.0852 0.00744446 21.0327 -0.0016806 20.9801 0.000285754C20.9274 0.00225211 20.8757 0.015266 20.8284 0.0384831C19.623 0.597792 18.5048 1.32862 17.5088 2.20823C17.0414 2.06887 16.5625 1.97161 16.0778 1.91761C15.6691 1.87324 15.265 1.79388 14.8699 1.68042C14.4844 1.53798 14.112 1.36272 13.7565 1.15655C13.0459 0.774046 12.3113 0.378421 11.4497 0.375421H11.4401C10.548 0.375421 9.76951 0.792608 9.08307 1.16067C8.74395 1.35685 8.3885 1.52335 8.02069 1.6583C7.63748 1.76497 7.24578 1.83836 6.84994 1.87767C6.07876 1.97967 5.20463 2.09517 4.48726 2.6108C3.77626 3.12211 3.39057 3.91111 3.05044 4.60711C2.8857 4.97323 2.68992 5.32457 2.46526 5.6573C2.22582 5.95723 1.96076 6.23578 1.67307 6.4898C1.10176 7.02811 0.454319 7.63861 0.169694 8.50317C-0.114931 9.36773 0.0440691 10.2422 0.184132 11.014C0.264975 11.3888 0.313031 11.7699 0.327757 12.153C0.311004 12.554 0.259942 12.9528 0.175132 13.345C0.0354441 14.1066 -0.122618 14.97 0.146257 15.8025ZM0.883694 8.73698C1.24407 7.64198 2.42513 6.98255 3.07182 6.0998C3.74213 5.1848 4.02432 3.8678 4.92657 3.21923C5.83782 2.56392 7.18238 2.71561 8.25132 2.37173C9.30732 2.03236 10.3076 1.12542 11.4401 1.12523H11.4473C12.543 1.12898 13.5383 2.0333 14.6355 2.39273C15.7328 2.75217 17.0713 2.61323 17.9559 3.25861C18.2391 3.4749 18.478 3.74366 18.6596 4.05023C18.3881 4.17833 18.1098 4.29138 17.8258 4.38886C17.662 4.06345 17.3852 3.80882 17.0473 3.67255C16.7094 3.53628 16.3335 3.52768 15.9897 3.64837C15.6459 3.76906 15.3578 4.01077 15.1793 4.32836C15.0007 4.64594 14.9439 5.01767 15.0194 5.37411C15.0949 5.73054 15.2976 6.0473 15.5896 6.2652C15.8816 6.4831 16.2429 6.58725 16.6061 6.55818C16.9693 6.52911 17.3094 6.36881 17.5631 6.10724C17.8167 5.84566 17.9664 5.5007 17.9843 5.1368C18.3388 5.02048 18.6854 4.88144 19.0221 4.72055C19.2374 5.21865 19.494 5.69793 19.7889 6.15342C20.4456 7.0628 21.6186 7.7363 21.9632 8.80298C22.3043 9.85917 21.7493 11.0867 21.7453 12.2202C21.7416 13.3135 22.3013 14.5433 21.9409 15.6383C21.5805 16.7335 20.3994 17.3927 19.7528 18.2757C19.0824 19.1905 18.8003 20.5075 17.898 21.1562C16.9868 21.8114 15.6422 21.6597 14.5733 22.0035C13.5173 22.3431 12.5169 23.25 11.3844 23.25H11.3773C10.2816 23.2463 9.28632 22.3422 8.18907 21.9825C7.09182 21.6229 5.75307 21.7622 4.86863 21.1169C3.95176 20.448 3.68551 19.1222 3.03544 18.2219C2.37901 17.3125 1.20601 16.6392 0.861382 15.5725C0.520319 14.5163 1.07532 13.2887 1.07907 12.1553C1.08282 11.0618 0.523319 9.83217 0.883694 8.73698ZM16.4816 5.42911H16.488C16.7205 5.42268 16.9519 5.39538 17.1795 5.34755C17.1177 5.5014 17.0069 5.63058 16.8642 5.71508C16.7216 5.79958 16.5551 5.83469 16.3904 5.81497C16.2258 5.79525 16.0723 5.7218 15.9536 5.60599C15.835 5.49019 15.7578 5.33849 15.7341 5.1744C15.7104 5.0103 15.7414 4.84296 15.8224 4.6983C15.9034 4.55363 16.0299 4.43972 16.1822 4.37419C16.3345 4.30866 16.5041 4.29518 16.6649 4.33583C16.8256 4.37648 16.9685 4.46899 17.0713 4.59905C16.8792 4.64281 16.6835 4.6696 16.4867 4.67911H16.4848C16.3854 4.67869 16.2898 4.71779 16.2192 4.78782C16.1486 4.85784 16.1086 4.95306 16.1082 5.05251C16.1078 5.15197 16.1469 5.24752 16.2169 5.31815C16.287 5.38877 16.3822 5.42869 16.4816 5.42911Z" fill="white" stroke="white" stroke-width="0.6"/>
<path d="M6.28912 14.0626C6.37309 14.0636 6.45412 14.0317 6.51488 13.9738C6.57565 13.9158 6.61131 13.8364 6.61424 13.7524V11.6082L8.29724 13.9268C8.32805 13.969 8.3684 14.0033 8.41499 14.027C8.46159 14.0507 8.51311 14.063 8.56537 14.0629C8.64938 14.064 8.73047 14.0321 8.79127 13.9741C8.85206 13.9161 8.88775 13.8366 8.89068 13.7526V10.6233C8.88719 10.5393 8.8514 10.46 8.79079 10.4019C8.73018 10.3437 8.64945 10.3113 8.56546 10.3113C8.48148 10.3113 8.40074 10.3437 8.34013 10.4019C8.27952 10.46 8.24373 10.5393 8.24024 10.6233V12.7782L6.55143 10.4433C6.52191 10.4015 6.48247 10.3676 6.43665 10.3449C6.39083 10.3221 6.34007 10.3111 6.28893 10.3128C6.20496 10.3117 6.12393 10.3436 6.06317 10.4016C6.0024 10.4595 5.96674 10.539 5.96381 10.6229V13.7524C5.96669 13.8364 6.00236 13.9159 6.06317 13.9739C6.12398 14.032 6.20509 14.0636 6.28912 14.0626ZM9.87749 14.0193H11.7202C11.7583 14.0206 11.7962 14.0143 11.8318 14.0007C11.8673 13.9871 11.8998 13.9665 11.9272 13.9401C11.9546 13.9136 11.9764 13.882 11.9913 13.8469C12.0062 13.8119 12.0139 13.7742 12.0139 13.7361C12.0139 13.6981 12.0062 13.6604 11.9913 13.6253C11.9764 13.5903 11.9546 13.5586 11.9272 13.5322C11.8998 13.5058 11.8673 13.4851 11.8318 13.4715C11.7962 13.4579 11.7583 13.4516 11.7202 13.453H10.2084V12.4518H11.2866C11.3241 12.4534 11.3615 12.4475 11.3967 12.4343C11.4318 12.4211 11.4639 12.401 11.4911 12.375C11.5182 12.3491 11.5398 12.3179 11.5546 12.2834C11.5693 12.2489 11.5769 12.2117 11.5769 12.1742C11.5769 12.1366 11.5693 12.0995 11.5546 12.0649C11.5398 12.0304 11.5182 11.9992 11.4911 11.9733C11.4639 11.9474 11.4318 11.9272 11.3967 11.914C11.3615 11.9008 11.3241 11.8949 11.2866 11.8966H10.2084V10.9223H11.6576C11.6957 10.9237 11.7336 10.9174 11.7692 10.9038C11.8047 10.8902 11.8372 10.8696 11.8646 10.8431C11.892 10.8167 11.9138 10.785 11.9287 10.75C11.9436 10.7149 11.9512 10.6773 11.9512 10.6392C11.9512 10.6011 11.9436 10.5634 11.9287 10.5284C11.9138 10.4934 11.892 10.4617 11.8646 10.4352C11.8372 10.4088 11.8047 10.3882 11.7692 10.3746C11.7336 10.361 11.6957 10.3547 11.6576 10.3561H9.87749C9.79177 10.3542 9.70878 10.3863 9.64674 10.4455C9.5847 10.5047 9.54867 10.5861 9.54656 10.6718V13.7037C9.54872 13.7894 9.58477 13.8707 9.6468 13.9299C9.70884 13.989 9.7918 14.0212 9.87749 14.0193ZM13.2892 13.8451C13.3137 13.9103 13.3579 13.9664 13.4157 14.0053C13.4735 14.0443 13.542 14.0643 13.6116 14.0625C13.6813 14.0607 13.7487 14.0372 13.8044 13.9953C13.8601 13.9534 13.9014 13.8952 13.9224 13.8288L14.5787 11.5971L15.2347 13.8288C15.2558 13.8953 15.297 13.9536 15.3527 13.9955C15.4085 14.0375 15.4759 14.061 15.5456 14.0628C15.6153 14.0646 15.6839 14.0445 15.7417 14.0055C15.7995 13.9665 15.8437 13.9104 15.8681 13.8451L16.8435 10.7264C16.8552 10.695 16.8611 10.6618 16.8607 10.6283C16.8568 10.5518 16.8265 10.479 16.775 10.4222C16.7236 10.3653 16.6541 10.328 16.5783 10.3165C16.5026 10.305 16.4251 10.32 16.3591 10.359C16.2932 10.398 16.2426 10.4585 16.2161 10.5304L15.5486 12.8164L14.898 10.5413C14.8752 10.4747 14.8322 10.4168 14.7749 10.3758C14.7177 10.3349 14.649 10.3128 14.5786 10.3128C14.5082 10.3128 14.4395 10.3349 14.3822 10.3758C14.325 10.4168 14.2819 10.4747 14.2592 10.5413L13.6086 12.8164L12.9411 10.5304C12.9144 10.4587 12.8638 10.3984 12.7979 10.3595C12.7319 10.3207 12.6546 10.3058 12.5789 10.3173C12.5033 10.3288 12.4339 10.366 12.3824 10.4226C12.331 10.4793 12.3006 10.5519 12.2964 10.6283C12.2961 10.6618 12.3018 10.695 12.3135 10.7264L13.2892 13.8451Z" fill="white"/>
</g>
<defs>
<clipPath id="clip0_150_140">
<rect width="24" height="24" fill="white"/>
</clipPath>
</defs>
</svg>
