<svg width="20" height="20" viewBox="0 0 20 20" fill="none" xmlns="http://www.w3.org/2000/svg">
<path d="M14.1667 18.9582H2.50002C2.11338 18.9577 1.74271 18.8039 1.46931 18.5305C1.19592 18.2572 1.04213 17.8865 1.04169 17.4998V2.49984C1.04213 2.1132 1.19592 1.74252 1.46931 1.46913C1.74271 1.19573 2.11338 1.04195 2.50002 1.0415H14.1667C14.5533 1.04195 14.924 1.19573 15.1974 1.46913C15.4708 1.74252 15.6246 2.1132 15.625 2.49984V11.6665C15.625 11.8323 15.5592 11.9912 15.442 12.1084C15.3248 12.2257 15.1658 12.2915 15 12.2915C14.8343 12.2915 14.6753 12.2257 14.5581 12.1084C14.4409 11.9912 14.375 11.8323 14.375 11.6665V2.49984C14.3744 2.44479 14.3522 2.39217 14.3133 2.35324C14.2744 2.31431 14.2217 2.29215 14.1667 2.2915H2.50002C2.44497 2.29215 2.39235 2.31431 2.35342 2.35324C2.31449 2.39217 2.29234 2.44479 2.29169 2.49984V17.4998C2.29234 17.5549 2.31449 17.6075 2.35342 17.6464C2.39235 17.6854 2.44497 17.7075 2.50002 17.7082H14.1667C14.3233 17.6461 14.4979 17.6475 14.6535 17.712C14.8091 17.7766 14.9334 17.8993 15 18.054C15.0324 18.1285 15.0497 18.2087 15.0508 18.2899C15.0519 18.3711 15.0368 18.4518 15.0064 18.5271C14.976 18.6024 14.9308 18.6709 14.8737 18.7286C14.8165 18.7863 14.7484 18.8321 14.6734 18.8632C14.5121 18.927 14.3401 18.9593 14.1667 18.9582Z" fill="url(#paint0_linear_17_384)"/>
<path d="M12.0834 5.625H4.58337C4.41761 5.625 4.25864 5.55915 4.14143 5.44194C4.02422 5.32473 3.95837 5.16576 3.95837 5C3.95837 4.83424 4.02422 4.67527 4.14143 4.55806C4.25864 4.44085 4.41761 4.375 4.58337 4.375H12.0834C12.2491 4.375 12.4081 4.44085 12.5253 4.55806C12.6425 4.67527 12.7084 4.83424 12.7084 5C12.7084 5.16576 12.6425 5.32473 12.5253 5.44194C12.4081 5.55915 12.2491 5.625 12.0834 5.625ZM12.0834 8.95833H4.58337C4.41761 8.95833 4.25864 8.89248 4.14143 8.77527C4.02422 8.65806 3.95837 8.49909 3.95837 8.33333C3.95837 8.16757 4.02422 8.0086 4.14143 7.89139C4.25864 7.77418 4.41761 7.70833 4.58337 7.70833H12.0834C12.2491 7.70833 12.4081 7.77418 12.5253 7.89139C12.6425 8.0086 12.7084 8.16757 12.7084 8.33333C12.7084 8.49909 12.6425 8.65806 12.5253 8.77527C12.4081 8.89248 12.2491 8.95833 12.0834 8.95833ZM10 12.2917H4.58337C4.41761 12.2917 4.25864 12.2258 4.14143 12.1086C4.02422 11.9914 3.95837 11.8324 3.95837 11.6667C3.95837 11.5009 4.02422 11.3419 4.14143 11.2247C4.25864 11.1075 4.41761 11.0417 4.58337 11.0417H10C10.1658 11.0417 10.3248 11.1075 10.442 11.2247C10.5592 11.3419 10.625 11.5009 10.625 11.6667C10.625 11.8324 10.5592 11.9914 10.442 12.1086C10.3248 12.2258 10.1658 12.2917 10 12.2917ZM9.16671 15.625H4.58337C4.41761 15.625 4.25864 15.5592 4.14143 15.4419C4.02422 15.3247 3.95837 15.1658 3.95837 15C3.95837 14.8342 4.02422 14.6753 4.14143 14.5581C4.25864 14.4408 4.41761 14.375 4.58337 14.375H9.16671C9.33247 14.375 9.49144 14.4408 9.60865 14.5581C9.72586 14.6753 9.79171 14.8342 9.79171 15C9.79171 15.1658 9.72586 15.3247 9.60865 15.4419C9.49144 15.5592 9.33247 15.625 9.16671 15.625ZM15 18.9583C14.2172 18.9583 13.4519 18.7262 12.8009 18.2912C12.15 17.8563 11.6426 17.2381 11.343 16.5148C11.0434 15.7915 10.965 14.9956 11.1178 14.2278C11.2705 13.4599 11.6475 12.7546 12.2011 12.201C12.7547 11.6475 13.46 11.2705 14.2278 11.1177C14.9956 10.965 15.7915 11.0434 16.5148 11.343C17.2381 11.6426 17.8563 12.1499 18.2913 12.8009C18.7262 13.4518 18.9584 14.2171 18.9584 15C18.9573 16.0495 18.5399 17.0557 17.7978 17.7977C17.0557 18.5398 16.0495 18.9572 15 18.9583ZM15 12.2917C14.4644 12.2917 13.9408 12.4505 13.4954 12.7481C13.05 13.0457 12.7029 13.4687 12.4979 13.9636C12.2929 14.4584 12.2392 15.003 12.3437 15.5284C12.4482 16.0537 12.7062 16.5363 13.085 16.9151C13.4637 17.2938 13.9463 17.5518 14.4717 17.6563C14.997 17.7608 15.5416 17.7072 16.0365 17.5022C16.5314 17.2972 16.9543 16.9501 17.2519 16.5047C17.5495 16.0593 17.7084 15.5357 17.7084 15C17.7075 14.282 17.4219 13.5936 16.9141 13.0859C16.4064 12.5782 15.7181 12.2925 15 12.2917Z" fill="url(#paint1_linear_17_384)"/>
<path d="M14.5834 16.4582C14.5013 16.4582 14.42 16.442 14.3442 16.4106C14.2685 16.3791 14.1996 16.333 14.1417 16.2749L13.3084 15.4415C13.247 15.3843 13.1977 15.3153 13.1635 15.2387C13.1294 15.162 13.111 15.0792 13.1095 14.9953C13.1081 14.9114 13.1235 14.828 13.1549 14.7502C13.1864 14.6724 13.2331 14.6017 13.2925 14.5423C13.3518 14.483 13.4225 14.4362 13.5004 14.4048C13.5782 14.3733 13.6615 14.3579 13.7455 14.3594C13.8294 14.3609 13.9121 14.3792 13.9888 14.4134C14.0655 14.4475 14.1345 14.4968 14.1917 14.5582L14.5834 14.9499L15.8084 13.7249C15.9268 13.6145 16.0835 13.5544 16.2455 13.5572C16.4074 13.5601 16.5619 13.6257 16.6764 13.7402C16.7909 13.8547 16.8565 14.0092 16.8593 14.1711C16.8622 14.333 16.8021 14.4897 16.6917 14.6082L15.025 16.2749C14.9671 16.333 14.8983 16.3791 14.8225 16.4106C14.7467 16.442 14.6654 16.4582 14.5834 16.4582Z" fill="url(#paint2_linear_17_384)"/>
<defs>
<linearGradient id="paint0_linear_17_384" x1="8.33335" y1="1.0415" x2="8.33335" y2="18.9582" gradientUnits="userSpaceOnUse">
<stop stop-color="#7A36CA"/>
<stop offset="1" stop-color="#38498D"/>
</linearGradient>
<linearGradient id="paint1_linear_17_384" x1="11.4584" y1="4.375" x2="11.4584" y2="18.9583" gradientUnits="userSpaceOnUse">
<stop stop-color="#7A36CA"/>
<stop offset="1" stop-color="#38498D"/>
</linearGradient>
<linearGradient id="paint2_linear_17_384" x1="14.9844" y1="13.5571" x2="14.9844" y2="16.4582" gradientUnits="userSpaceOnUse">
<stop stop-color="#7A36CA"/>
<stop offset="1" stop-color="#38498D"/>
</linearGradient>
</defs>
</svg>
