<svg width="25" height="24" viewBox="0 0 25 24" fill="none" xmlns="http://www.w3.org/2000/svg">
<path d="M2.50002 22.75C2.30002 22.75 2.10999 22.67 1.96999 22.53C1.77999 22.34 1.70004 22.06 1.77004 21.8L3.03005 17.09C2.19005 15.53 1.75002 13.77 1.75002 11.99C1.75002 6.05999 6.57002 1.23999 12.5 1.23999C18.43 1.23999 23.25 6.05999 23.25 11.99C23.25 17.92 18.43 22.74 12.5 22.74C10.69 22.74 8.92004 22.29 7.34004 21.43L2.70003 22.72C2.63003 22.74 2.57002 22.75 2.50002 22.75ZM7.44002 19.88C7.57002 19.88 7.70002 19.92 7.82002 19.98C9.23002 20.81 10.85 21.25 12.5 21.25C17.6 21.25 21.75 17.1 21.75 12C21.75 6.9 17.6 2.75 12.5 2.75C7.40002 2.75 3.25002 6.9 3.25002 12C3.25002 13.63 3.68001 15.22 4.49001 16.62C4.59001 16.79 4.62002 17 4.57002 17.19L3.57002 20.93L7.25002 19.91C7.31002 19.89 7.38002 19.88 7.44002 19.88Z" fill="#15B097"/>
<path d="M15.24 17.7601C14.62 17.7601 13.98 17.62 13.31 17.33C12.68 17.06 12.05 16.7 11.44 16.25C10.84 15.81 10.25 15.31 9.71002 14.77C9.17002 14.22 8.66998 13.6401 8.22998 13.0401C7.77998 12.4101 7.41997 11.79 7.15997 11.18C6.87997 10.52 6.73999 9.87004 6.73999 9.25004C6.73999 8.81004 6.81997 8.39004 6.96997 8.00004C7.12997 7.59004 7.38998 7.22004 7.72998 6.90004C8.36998 6.27004 9.29002 6.04006 10.02 6.39006C10.27 6.50006 10.48 6.68006 10.64 6.92006L11.8 8.55003C11.92 8.71003 12.01 8.88003 12.08 9.05003C12.16 9.25003 12.21 9.45006 12.21 9.64006C12.21 9.90006 12.14 10.1601 12 10.3901C11.91 10.5401 11.78 10.7201 11.61 10.8901L11.48 11.03C11.54 11.11 11.61 11.21 11.72 11.33C11.93 11.57 12.16 11.83 12.41 12.08C12.66 12.32 12.91 12.56 13.16 12.77C13.28 12.87 13.38 12.95 13.46 13L13.6 12.86C13.78 12.68 13.96 12.5401 14.14 12.4501C14.47 12.2401 14.98 12.19 15.43 12.38C15.59 12.44 15.75 12.53 15.92 12.65L17.59 13.83C17.82 13.99 18 14.21 18.12 14.46C18.22 14.71 18.26 14.93 18.26 15.16C18.26 15.46 18.19 15.75 18.06 16.03C17.93 16.29 17.78 16.5201 17.6 16.7301C17.28 17.0801 16.91 17.3401 16.51 17.5101C16.11 17.6801 15.68 17.7601 15.24 17.7601ZM9.28998 7.74003C9.22998 7.74003 9.03003 7.74003 8.78003 7.99003C8.59003 8.17003 8.46 8.36005 8.37 8.57005C8.28 8.78005 8.23999 9.02005 8.23999 9.26005C8.23999 9.68005 8.33998 10.13 8.53998 10.61C8.74998 11.11 9.06 11.6401 9.44 12.1701C9.83 12.7001 10.27 13.23 10.76 13.72C11.25 14.2 11.77 14.65 12.31 15.05C12.83 15.43 13.36 15.73 13.89 15.96C14.65 16.29 15.35 16.37 15.92 16.13C16.12 16.05 16.3 15.9101 16.48 15.7301C16.57 15.6301 16.64 15.53 16.7 15.4C16.73 15.33 16.75 15.25 16.75 15.18C16.75 15.16 16.75 15.13 16.72 15.07L15.05 13.91C14.98 13.86 14.91 13.82 14.85 13.8C14.81 13.82 14.75 13.85 14.64 13.96L14.26 14.34C13.97 14.63 13.51 14.71 13.14 14.58L12.96 14.5C12.73 14.38 12.47 14.2001 12.18 13.9501C11.9 13.7101 11.63 13.46 11.34 13.18C11.06 12.89 10.81 12.62 10.57 12.34C10.31 12.03 10.13 11.78 10.01 11.57L9.90002 11.31C9.87002 11.21 9.85999 11.1 9.85999 11C9.85999 10.72 9.96002 10.47 10.15 10.27L10.53 9.88005C10.64 9.77005 10.68 9.71006 10.7 9.67006C10.67 9.60006 10.63 9.54004 10.58 9.47004L9.40997 7.82005L9.28998 7.74003Z" fill="#15B097"/>
</svg>
