<svg width="20" height="16" viewBox="0 0 20 16" fill="none" xmlns="http://www.w3.org/2000/svg">
<path d="M10.0643 0.975586H10.1754C11.2029 0.979059 16.4093 1.01669 17.813 1.39411C18.2374 1.50924 18.6242 1.73376 18.9346 2.04521C19.2451 2.35667 19.4683 2.74415 19.5821 3.16893C19.7194 3.74511 19.8114 4.33118 19.857 4.92175L19.8698 5.052L19.8975 5.37674L19.9074 5.50699C19.9884 6.64968 19.9988 7.71943 20 7.9533V8.04708C20 8.28962 19.9873 9.43231 19.8975 10.6219L19.8877 10.7533L19.8767 10.8835C19.8307 11.5394 19.7326 12.1906 19.5832 12.8309C19.4695 13.2556 19.2462 13.6431 18.9358 13.9546C18.6253 14.266 18.2386 14.4906 17.8142 14.6057C16.367 14.9958 10.8527 15.0231 10.0891 15.0242H9.91028C9.52417 15.0242 7.92648 15.0167 6.25123 14.9594L6.03878 14.9519L5.92996 14.9466L5.71635 14.938L5.50275 14.9293C4.38983 14.9131 3.28017 14.8045 2.18524 14.6045C1.76104 14.4895 1.37443 14.2653 1.06401 13.9542C0.753589 13.643 0.530221 13.2559 0.416208 12.8314C0.266739 12.1912 0.168599 11.54 0.122721 10.8841L0.11288 10.7527L0.103039 10.6225C0.040521 9.77693 0.00617463 8.9285 0 8.07718V7.92319C0 7.6546 0.0127352 6.72551 0.0798842 5.70091L0.0885673 5.5724L0.0920405 5.50757L0.101881 5.37732L0.129667 5.05258L0.142402 4.92233C0.187954 4.33175 0.279892 3.74567 0.417366 3.16951C0.531113 2.74473 0.754363 2.35724 1.0648 2.04579C1.37524 1.73434 1.76199 1.50982 2.1864 1.39469C3.2816 1.19665 4.39109 1.08804 5.50391 1.06994L5.71635 1.06126L5.93111 1.05373L6.03878 1.05026L6.25239 1.04158C7.44216 1.00298 8.63213 0.981759 9.82229 0.9779L10.0643 0.975586ZM8 4.98832V11.0086L13.1965 7.99845L8 4.98832Z" fill="#D33DC2"/>
</svg>
